<svg xmlns="http://www.w3.org/2000/svg" width="100%" height="100%" preserveAspectRatio="xMidYMid meet" viewBox="0 0.000020253208276699297 144.7254180908203 147" overflow="visible"><defs id="SvgjsDefs1014"><linearGradient id="SvgjsLinearGradientdAC0tdB2yl" gradientUnits="userSpaceOnUse" x1="-247.95000839233387" y1="439.85005569457996" x2="-162.1499824523921" y2="354.05002975463816"><stop id="SvgjsStop1017" stop-color="#8ec1ff" offset="0.05"></stop><stop id="SvgjsStop1018" stop-color="#0f7bff" offset="0.95"></stop></linearGradient></defs><g id="SvgjsG1015" transform="scale(0.6430525082873494)" opacity="1"><g id="SvgjsG1019" class="qy8MXwHty" transform="translate(396.34627930971, -486.93769562063466) scale(1.3841320928835108)" light-content="false" non-strokable="false" fill="#ffffff"><path d="M-164.4 409.4v3.7c0 5.3-4.2 9.6-9.4 9.8h-62c-1.8 0-3.4.8-4.5 2h63.2c.6 0 1.1.5 1.1 1.1s-.5 1.1-1.1 1.1h-64.4c-.1.5-.2 1-.2 1.6v.7h64.6c.6 0 1.1.5 1.1 1.1 0 .6-.5 1.1-1.1 1.1h-64.6v.7c0 .6.1 1.1.2 1.6h64.4c.6 0 1.1.5 1.1 1.1 0 .6-.5 1.1-1.1 1.1h-63.2c1.1 1.2 2.7 2 4.5 2h61.8c1.1 0 2 .9 2 2s-.9 2-2 2h-61.8c-5.4 0-9.9-4.4-9.9-9.9v-3.7c0-5.3 4.2-9.6 9.4-9.8h62c1.8 0 3.4-.8 4.5-2H-233c-.6 0-1.1-.5-1.1-1.1s.5-1.1 1.1-1.1h64.4c.1-.5.2-1 .2-1.6v-.7H-233c-.6 0-1.1-.5-1.1-1.1 0-.6.5-1.1 1.1-1.1h64.6v-.7c0-.6-.1-1.1-.2-1.6H-233c-.6 0-1.1-.5-1.1-1.1 0-.6.5-1.1 1.1-1.1h63.2c-1.1-1.2-2.7-2-4.5-2H-236c-1.1 0-2-.9-2-2s.9-2 2-2h25.4c-.4-.2-.7-.4-1-.6-2.3-1.7-3.9-3.9-5.3-6.3-1.5-2.7-2.6-5.5-3-8.5-.5-3.2-.3-6.4 1.3-9.4 1.5-2.9 4.1-4.6 7.2-5.5 2.5-.7 5-.8 7.6-.3.8.2 1.5.7 2.3.9 0-.3.1-.6.1-.9-.1-.6-.2-1.1-.4-1.7-.9-2-2.2-3.3-4.1-4.4-1.3-.7-2.5-1.4-3.9-1.9h-.2v.1c.1.1.2.1.3.2 1.5.9 2.9 1.8 4.3 2.9.9.8 1.6 1.8 2.2 3-.4.2-.7.3-1 .4-1.5.5-3 .3-4.4-.4-1.9-.9-3.3-2.4-4.4-4.2-1.7-3.1-2.1-6.3-1.2-9.7.1-.4.2-.8.4-1.1.1-.1.2-.3.3-.3.1 0 .3.2.4.3.9 1.6 2.2 2.8 3.9 3.5.8.3 1.8.4 2.7.6 1.1.2 2.2.4 3.2.9 1.5.8 2.6 1.9 3.2 3.5.4 1.4.2 2.7-.5 3.9-.3.5-.3.7 0 1.2 0 0 0 .1.1.1.4-1 1-2 1.7-3 .7-.9 1.6-1.7 2.5-2.5.5-.5 1.2-.6 1.9-.4.8.2 1 1 .5 1.6-.2.2-.4.4-.7.5-2.9 2-5 4.6-6.3 7.9.7-.1 1.5-.7 2.2-.9 2.6-.5 5.1-.4 7.6.3 3.1.9 5.6 2.5 7.2 5.5 1.6 3 1.8 6.1 1.3 9.4-.5 3-1.5 5.9-3 8.5-1.4 2.4-3 4.7-5.3 6.3-.3.2-.6.4-1 .6h17.7c5.4-.1 9.8 4.3 9.8 9.8z"></path></g><g id="SvgjsG1020" class="text" transform="translate(113.0999984741211, 186.56719740301057) scale(1)" light-content="false" fill="#ffffff"><path d="M-91.33 -16.26L-100.24 -16.26L-96.05 -29.38ZM-101.5 -12.45L-89.99 -12.45L-87.11 -4.42C-86.9 -3.78 -87.06 -3.31 -87.6 -3C-88.13 -2.7 -89.16 -2.51 -90.66 -2.43L-90.66 0L-75.37 0L-75.37 -2.43C-75.99 -2.51 -76.51 -2.61 -76.92 -2.72C-77.33 -2.84 -77.67 -2.98 -77.93 -3.13C-78.19 -3.29 -78.4 -3.48 -78.54 -3.69C-78.69 -3.91 -78.81 -4.15 -78.91 -4.42L-91.22 -38.58C-91.8 -38.43 -92.42 -38.24 -93.08 -38.03C-93.73 -37.81 -94.39 -37.56 -95.05 -37.27C-95.72 -36.97 -96.37 -36.65 -97 -36.28C-97.64 -35.92 -98.22 -35.52 -98.75 -35.07L-108.76 -4.42C-108.96 -3.84 -109.4 -3.42 -110.08 -3.16C-110.77 -2.91 -111.77 -2.67 -113.1 -2.43L-113.1 0L-100.09 0L-100.09 -2.43C-101.69 -2.61 -102.82 -2.83 -103.48 -3.11C-104.13 -3.38 -104.36 -3.82 -104.17 -4.42Z M-39.6 -11.04C-39.6 -12.49 -39.87 -13.77 -40.41 -14.88C-40.94 -16 -41.65 -16.99 -42.53 -17.86C-43.41 -18.73 -44.41 -19.5 -45.52 -20.19C-46.63 -20.87 -47.77 -21.5 -48.95 -22.09L-52.37 -23.79C-53.49 -24.36 -54.48 -24.94 -55.36 -25.55C-56.24 -26.15 -56.95 -26.82 -57.49 -27.54C-58.02 -28.26 -58.29 -29.08 -58.29 -30C-58.29 -30.55 -58.19 -31.08 -58 -31.6C-57.8 -32.11 -57.49 -32.57 -57.06 -32.97C-56.63 -33.37 -56.08 -33.69 -55.42 -33.93C-54.76 -34.16 -53.96 -34.28 -53.02 -34.28C-52.47 -34.28 -51.88 -34.19 -51.25 -34.03C-50.61 -33.86 -49.99 -33.57 -49.37 -33.16C-48.76 -32.75 -48.17 -32.21 -47.63 -31.54C-47.08 -30.86 -46.61 -30.03 -46.22 -29.03L-44 -28.86C-43.84 -28.99 -43.65 -29.23 -43.44 -29.58C-43.22 -29.92 -43 -30.31 -42.78 -30.75C-42.55 -31.19 -42.34 -31.65 -42.13 -32.12C-41.93 -32.6 -41.76 -33.05 -41.62 -33.46C-41.49 -33.87 -41.39 -34.22 -41.34 -34.53C-41.29 -34.83 -41.32 -35.02 -41.42 -35.1C-41.77 -35.49 -42.29 -35.85 -42.98 -36.18C-43.68 -36.51 -44.48 -36.8 -45.39 -37.03C-46.29 -37.27 -47.28 -37.45 -48.33 -37.59C-49.39 -37.72 -50.47 -37.79 -51.58 -37.79C-53.2 -37.79 -54.68 -37.64 -56.01 -37.32C-57.33 -37.01 -58.52 -36.6 -59.55 -36.08C-60.59 -35.56 -61.49 -34.97 -62.25 -34.29C-63.01 -33.62 -63.64 -32.92 -64.14 -32.2C-64.63 -31.47 -65.01 -30.75 -65.25 -30.03C-65.49 -29.31 -65.62 -28.64 -65.62 -28.04C-65.62 -26.61 -65.35 -25.38 -64.83 -24.35C-64.3 -23.31 -63.6 -22.4 -62.73 -21.61C-61.86 -20.82 -60.87 -20.12 -59.76 -19.51C-58.64 -18.91 -57.51 -18.33 -56.34 -17.78C-55.18 -17.24 -54.04 -16.69 -52.93 -16.14C-51.82 -15.6 -50.83 -14.99 -49.96 -14.31C-49.09 -13.64 -48.39 -12.87 -47.86 -12C-47.33 -11.13 -47.07 -10.1 -47.07 -8.91C-47.07 -7.97 -47.25 -7.16 -47.6 -6.49C-47.95 -5.82 -48.43 -5.26 -49.03 -4.82C-49.64 -4.38 -50.34 -4.05 -51.13 -3.84C-51.92 -3.62 -52.75 -3.52 -53.63 -3.52C-54.63 -3.52 -55.59 -3.73 -56.5 -4.15C-57.42 -4.57 -58.28 -5.14 -59.07 -5.87C-59.86 -6.61 -60.57 -7.47 -61.21 -8.47C-61.84 -9.46 -62.38 -10.54 -62.83 -11.69L-65.21 -11.84C-65.34 -11.29 -65.46 -10.67 -65.56 -9.99C-65.66 -9.31 -65.73 -8.61 -65.79 -7.9C-65.85 -7.18 -65.88 -6.48 -65.88 -5.8C-65.88 -5.12 -65.87 -4.5 -65.85 -3.96C-65.83 -3.41 -65.79 -2.95 -65.73 -2.59C-65.67 -2.23 -65.6 -2.03 -65.5 -1.99C-64.82 -1.54 -64 -1.14 -63.05 -0.79C-62.11 -0.44 -61.13 -0.14 -60.14 0.1C-59.14 0.35 -58.17 0.54 -57.21 0.67C-56.25 0.81 -55.41 0.88 -54.69 0.88C-52.97 0.88 -51.41 0.7 -50 0.35C-48.59 0 -47.33 -0.47 -46.21 -1.05C-45.08 -1.64 -44.11 -2.33 -43.28 -3.12C-42.45 -3.91 -41.76 -4.75 -41.23 -5.64C-40.69 -6.53 -40.28 -7.43 -40.01 -8.35C-39.74 -9.27 -39.6 -10.17 -39.6 -11.04Z M0.62 -6.18C0.56 -6.24 0.46 -6.37 0.31 -6.58C0.16 -6.78 0.01 -7.01 -0.16 -7.25C-0.32 -7.5 -0.49 -7.72 -0.66 -7.94C-0.82 -8.15 -0.95 -8.3 -1.05 -8.38C-2.05 -7.56 -3.03 -6.89 -4 -6.37C-4.96 -5.85 -5.87 -5.45 -6.72 -5.16C-7.57 -4.86 -8.36 -4.66 -9.08 -4.56C-9.8 -4.45 -10.43 -4.39 -10.95 -4.39C-12.2 -4.39 -13.45 -4.66 -14.7 -5.19C-15.95 -5.71 -17.08 -6.53 -18.07 -7.65C-19.07 -8.76 -19.88 -10.19 -20.5 -11.94C-21.13 -13.69 -21.44 -15.79 -21.44 -18.25C-21.44 -21.3 -21.18 -23.81 -20.65 -25.8C-20.12 -27.78 -19.44 -29.36 -18.6 -30.53C-17.76 -31.7 -16.82 -32.52 -15.79 -32.99C-14.75 -33.46 -13.74 -33.69 -12.74 -33.69C-11.32 -33.71 -9.97 -33.3 -8.71 -32.45C-7.45 -31.6 -6.33 -30.19 -5.36 -28.21L-3.16 -27.74C-3 -27.9 -2.81 -28.17 -2.58 -28.56C-2.34 -28.95 -2.09 -29.4 -1.83 -29.91C-1.56 -30.42 -1.31 -30.95 -1.05 -31.51C-0.8 -32.07 -0.57 -32.58 -0.38 -33.06C-0.18 -33.54 -0.04 -33.95 0.05 -34.28C0.13 -34.61 0.14 -34.8 0.06 -34.86C-0.45 -35.27 -1.11 -35.65 -1.92 -36.01C-2.73 -36.36 -3.62 -36.67 -4.6 -36.93C-5.57 -37.19 -6.6 -37.4 -7.67 -37.56C-8.75 -37.71 -9.81 -37.79 -10.87 -37.79C-13.56 -37.81 -16.06 -37.33 -18.37 -36.36C-20.67 -35.38 -22.67 -33.99 -24.36 -32.18C-26.05 -30.38 -27.38 -28.2 -28.34 -25.66C-29.31 -23.13 -29.79 -20.29 -29.79 -17.17C-29.79 -14.34 -29.35 -11.8 -28.46 -9.57C-27.57 -7.33 -26.39 -5.44 -24.91 -3.9C-23.44 -2.35 -21.75 -1.17 -19.85 -0.35C-17.94 0.47 -15.97 0.88 -13.94 0.88C-11.64 0.88 -9.26 0.33 -6.81 -0.76C-4.36 -1.86 -1.88 -3.66 0.62 -6.18Z M10.43 0L26.54 0L26.54 -2.43C25.13 -2.71 24.12 -3.01 23.51 -3.35C22.89 -3.7 22.58 -3.98 22.58 -4.22L22.58 -32.67C22.58 -32.94 22.91 -33.24 23.57 -33.57C24.22 -33.91 25.21 -34.21 26.54 -34.48L26.54 -36.91L10.43 -36.91L10.43 -34.48C11.83 -34.21 12.84 -33.9 13.46 -33.54C14.07 -33.19 14.38 -32.9 14.38 -32.67L14.38 -4.22C14.38 -3.95 14.05 -3.65 13.4 -3.33C12.75 -3 11.75 -2.71 10.43 -2.43Z M65.76 -9.49L63.33 -10.31C62.92 -9.16 62.52 -8.17 62.12 -7.35C61.72 -6.53 61.27 -5.86 60.78 -5.33C60.29 -4.8 59.73 -4.42 59.1 -4.17C58.46 -3.93 57.7 -3.81 56.8 -3.81L54.19 -3.81C52.9 -3.81 51.87 -3.85 51.08 -3.94C50.3 -4.03 49.7 -4.16 49.27 -4.32C48.84 -4.49 48.56 -4.68 48.42 -4.91C48.28 -5.13 48.21 -5.39 48.21 -5.68L48.21 -18.19L52.34 -18.19C53.17 -18.19 53.87 -18.16 54.47 -18.11C55.06 -18.05 55.58 -17.95 56.02 -17.81C56.46 -17.68 56.85 -17.51 57.19 -17.31C57.54 -17.12 57.85 -16.87 58.15 -16.58C58.36 -16.74 58.59 -16.97 58.83 -17.29C59.08 -17.6 59.32 -17.94 59.57 -18.33C59.81 -18.71 60.04 -19.08 60.27 -19.45C60.49 -19.82 60.68 -20.15 60.84 -20.42L59.79 -21.53L48.21 -21.53L48.21 -33.11L57.76 -33.11C58.49 -33.11 59.04 -32.58 59.43 -31.54C59.83 -30.49 60.07 -29.06 60.17 -27.25L62.66 -27.25C62.77 -27.62 62.9 -28.18 63.02 -28.95C63.15 -29.71 63.27 -30.52 63.39 -31.38C63.51 -32.24 63.6 -33.08 63.68 -33.9C63.76 -34.72 63.82 -35.38 63.86 -35.89L62.6 -36.91L36.06 -36.91L36.06 -34.48C37.46 -34.21 38.47 -33.9 39.09 -33.54C39.7 -33.19 40.01 -32.9 40.01 -32.67L40.01 -4.22C40.01 -3.95 39.68 -3.65 39.03 -3.33C38.37 -3 37.38 -2.71 36.06 -2.43L36.06 0L64.56 0C64.64 -0.29 64.73 -0.79 64.84 -1.49C64.95 -2.2 65.06 -3 65.18 -3.91C65.29 -4.82 65.4 -5.77 65.5 -6.75C65.6 -7.74 65.68 -8.65 65.76 -9.49Z M74.17 0L86.76 0L86.76 -2.43C86 -2.53 85.37 -2.66 84.87 -2.81C84.38 -2.97 83.97 -3.13 83.66 -3.3C83.34 -3.46 83.13 -3.63 83 -3.79C82.87 -3.96 82.81 -4.1 82.81 -4.22L82.81 -26.22L99.83 -2.67C100.14 -2.24 100.54 -1.83 101.03 -1.44C101.52 -1.04 102.1 -0.69 102.77 -0.38C103.45 -0.07 104.22 0.2 105.09 0.42C105.96 0.65 106.93 0.8 108 0.88L108 -32.67C108 -32.94 108.31 -33.26 108.93 -33.63C109.54 -34 110.55 -34.29 111.96 -34.48L111.96 -36.91L99.36 -36.91L99.36 -34.48C100.14 -34.37 100.79 -34.23 101.29 -34.07C101.8 -33.92 102.21 -33.75 102.51 -33.59C102.81 -33.42 103.02 -33.26 103.14 -33.09C103.26 -32.92 103.32 -32.78 103.32 -32.67L103.32 -10.34L85.83 -34.63C85.45 -35.14 85.16 -35.54 84.93 -35.84C84.71 -36.15 84.5 -36.38 84.3 -36.53C84.11 -36.69 83.92 -36.79 83.73 -36.84C83.54 -36.89 83.31 -36.91 83.01 -36.91L74.17 -36.91L74.17 -34.48C74.83 -34.39 75.5 -34.14 76.17 -33.75C76.85 -33.36 77.5 -32.87 78.12 -32.29L78.12 -4.22C78.12 -3.95 77.82 -3.62 77.21 -3.25C76.61 -2.88 75.59 -2.61 74.17 -2.43Z"></path></g><g id="SvgjsG1021" class="text" transform="translate(112.52999877929688, 228.15719465642854) scale(1)" light-content="false" fill="#ffffff"><path d="M-102.16 -6.59C-102.16 -5.77 -102.22 -5.03 -102.36 -4.37C-102.5 -3.7 -102.71 -3.14 -103.01 -2.68C-103.31 -2.22 -103.69 -1.87 -104.15 -1.62C-104.62 -1.37 -105.18 -1.25 -105.83 -1.25C-106.28 -1.25 -106.74 -1.4 -107.21 -1.7C-107.68 -2 -108.1 -2.41 -108.48 -2.93C-108.86 -3.45 -109.17 -4.05 -109.41 -4.74C-109.65 -5.43 -109.77 -6.16 -109.77 -6.93C-109.77 -7.7 -109.71 -8.42 -109.59 -9.08C-109.47 -9.75 -109.26 -10.32 -108.98 -10.81C-108.7 -11.3 -108.32 -11.68 -107.85 -11.96C-107.38 -12.24 -106.8 -12.38 -106.1 -12.38C-105.6 -12.38 -105.11 -12.22 -104.64 -11.91C-104.16 -11.6 -103.74 -11.17 -103.38 -10.64C-103.01 -10.11 -102.72 -9.49 -102.49 -8.8C-102.27 -8.1 -102.16 -7.36 -102.16 -6.59ZM-99.42 -7.1C-99.42 -8.1 -99.56 -9.02 -99.86 -9.87C-100.16 -10.72 -100.58 -11.46 -101.13 -12.08C-101.68 -12.7 -102.33 -13.18 -103.1 -13.54C-103.87 -13.89 -104.72 -14.06 -105.67 -14.06C-106.32 -14.06 -106.93 -13.96 -107.52 -13.77C-108.1 -13.57 -108.65 -13.31 -109.16 -12.96C-109.66 -12.62 -110.13 -12.21 -110.54 -11.74C-110.96 -11.27 -111.31 -10.75 -111.6 -10.19C-111.9 -9.63 -112.12 -9.03 -112.28 -8.41C-112.45 -7.78 -112.53 -7.15 -112.53 -6.5C-112.53 -5.51 -112.38 -4.58 -112.08 -3.74C-111.78 -2.89 -111.36 -2.15 -110.81 -1.54C-110.27 -0.92 -109.61 -0.44 -108.83 -0.09C-108.06 0.26 -107.2 0.44 -106.24 0.44C-105.32 0.44 -104.45 0.23 -103.63 -0.19C-102.8 -0.61 -102.08 -1.17 -101.45 -1.87C-100.83 -2.57 -100.33 -3.37 -99.97 -4.28C-99.6 -5.19 -99.42 -6.13 -99.42 -7.1Z M-83.76 0L-77.1 0L-77.1 -0.78C-77.48 -0.87 -77.8 -0.96 -78.06 -1.05C-78.32 -1.13 -78.52 -1.21 -78.68 -1.27C-78.84 -1.34 -78.95 -1.41 -79.02 -1.47C-79.08 -1.54 -79.12 -1.6 -79.12 -1.67L-79.12 -10.68C-79.12 -11.27 -79.21 -11.78 -79.39 -12.21C-79.57 -12.63 -79.81 -12.98 -80.11 -13.26C-80.41 -13.53 -80.75 -13.73 -81.14 -13.86C-81.53 -14 -81.94 -14.06 -82.36 -14.06C-82.74 -14.06 -83.17 -13.98 -83.64 -13.82C-84.12 -13.66 -84.62 -13.43 -85.13 -13.12C-85.64 -12.81 -86.16 -12.43 -86.68 -11.97C-87.21 -11.51 -87.71 -10.98 -88.19 -10.39L-88.35 -13.52L-88.89 -14.06C-89.49 -13.79 -90.1 -13.56 -90.72 -13.37C-91.34 -13.19 -92.02 -13.04 -92.77 -12.93L-92.77 -12.2C-92.27 -12.14 -91.89 -12.08 -91.62 -12.03C-91.35 -11.97 -91.15 -11.88 -91.03 -11.75C-90.9 -11.62 -90.83 -11.45 -90.8 -11.22C-90.78 -11 -90.76 -10.69 -90.76 -10.31L-90.76 -1.67C-90.76 -1.5 -90.94 -1.35 -91.28 -1.22C-91.63 -1.09 -92.13 -0.94 -92.77 -0.78L-92.77 0L-86.11 0L-86.11 -0.78C-86.74 -0.91 -87.24 -1.06 -87.59 -1.22C-87.95 -1.37 -88.13 -1.52 -88.13 -1.67L-88.13 -8.48C-87.66 -9.13 -87.2 -9.67 -86.77 -10.1C-86.33 -10.53 -85.91 -10.89 -85.53 -11.15C-85.14 -11.42 -84.78 -11.62 -84.44 -11.73C-84.11 -11.85 -83.8 -11.91 -83.51 -11.91C-83.19 -11.91 -82.92 -11.87 -82.69 -11.78C-82.47 -11.7 -82.29 -11.56 -82.14 -11.35C-82 -11.14 -81.9 -10.84 -81.84 -10.47C-81.78 -10.1 -81.76 -9.63 -81.76 -9.05L-81.76 -1.67C-81.76 -1.53 -81.91 -1.4 -82.23 -1.26C-82.55 -1.12 -83.06 -0.96 -83.76 -0.78Z M-71.08 0L-64.12 0L-64.12 -0.78C-64.92 -0.91 -65.49 -1.06 -65.81 -1.22C-66.13 -1.37 -66.29 -1.52 -66.29 -1.67L-66.29 -22.18L-66.85 -22.71C-67.18 -22.55 -67.51 -22.41 -67.82 -22.29C-68.14 -22.18 -68.46 -22.08 -68.8 -21.99C-69.13 -21.9 -69.47 -21.82 -69.82 -21.75C-70.17 -21.67 -70.54 -21.6 -70.94 -21.53L-70.94 -20.8C-70.53 -20.75 -70.19 -20.71 -69.93 -20.66C-69.67 -20.62 -69.47 -20.53 -69.32 -20.41C-69.17 -20.29 -69.06 -20.11 -69.01 -19.86C-68.96 -19.62 -68.93 -19.28 -68.93 -18.84L-68.93 -1.67C-68.93 -1.59 -68.96 -1.51 -69.03 -1.44C-69.1 -1.36 -69.21 -1.28 -69.38 -1.21C-69.54 -1.14 -69.76 -1.06 -70.03 -0.99C-70.31 -0.92 -70.66 -0.84 -71.08 -0.78Z M-57.74 0L-51.08 0L-51.08 -0.78C-51.79 -0.91 -52.31 -1.07 -52.62 -1.24C-52.94 -1.41 -53.1 -1.55 -53.1 -1.67L-53.1 -14.06L-53.74 -14.06C-54.3 -13.82 -54.93 -13.6 -55.64 -13.4C-56.35 -13.21 -57.05 -13.05 -57.74 -12.93L-57.74 -12.2C-57.23 -12.15 -56.83 -12.09 -56.56 -12.01C-56.28 -11.93 -56.08 -11.81 -55.96 -11.64C-55.84 -11.47 -55.77 -11.23 -55.76 -10.92C-55.74 -10.61 -55.74 -10.21 -55.74 -9.71L-55.74 -1.67C-55.74 -1.53 -55.9 -1.38 -56.24 -1.22C-56.58 -1.06 -57.08 -0.91 -57.74 -0.78ZM-52.62 -18.47C-52.62 -18.97 -52.75 -19.34 -53.03 -19.58C-53.3 -19.82 -53.67 -19.94 -54.12 -19.94C-54.39 -19.94 -54.64 -19.89 -54.87 -19.78C-55.11 -19.68 -55.31 -19.54 -55.49 -19.35C-55.66 -19.17 -55.8 -18.95 -55.9 -18.69C-56.01 -18.44 -56.06 -18.16 -56.06 -17.87C-56.06 -17.38 -55.93 -17.01 -55.67 -16.77C-55.41 -16.52 -55.05 -16.39 -54.58 -16.39C-54.31 -16.39 -54.05 -16.45 -53.81 -16.55C-53.57 -16.66 -53.36 -16.81 -53.19 -16.99C-53.01 -17.18 -52.87 -17.4 -52.77 -17.65C-52.67 -17.91 -52.62 -18.18 -52.62 -18.47Z M-35.76 0L-29.1 0L-29.1 -0.78C-29.48 -0.87 -29.8 -0.96 -30.06 -1.05C-30.31 -1.13 -30.52 -1.21 -30.68 -1.27C-30.83 -1.34 -30.95 -1.41 -31.01 -1.47C-31.08 -1.54 -31.12 -1.6 -31.12 -1.67L-31.12 -10.68C-31.12 -11.27 -31.21 -11.78 -31.39 -12.21C-31.57 -12.63 -31.81 -12.98 -32.11 -13.26C-32.4 -13.53 -32.75 -13.73 -33.14 -13.86C-33.53 -14 -33.93 -14.06 -34.35 -14.06C-34.74 -14.06 -35.16 -13.98 -35.64 -13.82C-36.12 -13.66 -36.62 -13.43 -37.13 -13.12C-37.64 -12.81 -38.16 -12.43 -38.68 -11.97C-39.21 -11.51 -39.71 -10.98 -40.18 -10.39L-40.35 -13.52L-40.89 -14.06C-41.49 -13.79 -42.1 -13.56 -42.72 -13.37C-43.33 -13.19 -44.02 -13.04 -44.77 -12.93L-44.77 -12.2C-44.27 -12.14 -43.89 -12.08 -43.62 -12.03C-43.35 -11.97 -43.15 -11.88 -43.03 -11.75C-42.9 -11.62 -42.82 -11.45 -42.8 -11.22C-42.77 -11 -42.76 -10.69 -42.76 -10.31L-42.76 -1.67C-42.76 -1.5 -42.94 -1.35 -43.28 -1.22C-43.63 -1.09 -44.12 -0.94 -44.77 -0.78L-44.77 0L-38.1 0L-38.1 -0.78C-38.74 -0.91 -39.23 -1.06 -39.59 -1.22C-39.95 -1.37 -40.13 -1.52 -40.13 -1.67L-40.13 -8.48C-39.66 -9.13 -39.2 -9.67 -38.76 -10.1C-38.32 -10.53 -37.91 -10.89 -37.53 -11.15C-37.14 -11.42 -36.78 -11.62 -36.44 -11.73C-36.1 -11.85 -35.79 -11.91 -35.51 -11.91C-35.19 -11.91 -34.92 -11.87 -34.69 -11.78C-34.47 -11.7 -34.28 -11.56 -34.14 -11.35C-34 -11.14 -33.9 -10.84 -33.84 -10.47C-33.78 -10.1 -33.75 -9.63 -33.75 -9.05L-33.75 -1.67C-33.75 -1.53 -33.91 -1.4 -34.23 -1.26C-34.55 -1.12 -35.06 -0.96 -35.76 -0.78Z M-16.59 -12.45C-16 -12.45 -15.51 -12.32 -15.14 -12.07C-14.77 -11.82 -14.48 -11.51 -14.27 -11.15C-14.06 -10.79 -13.92 -10.41 -13.84 -10.02C-13.76 -9.63 -13.72 -9.3 -13.72 -9.02C-13.72 -8.82 -13.76 -8.68 -13.83 -8.61C-13.9 -8.53 -14.05 -8.5 -14.28 -8.5L-20.08 -8.5C-20 -9.08 -19.87 -9.62 -19.67 -10.11C-19.48 -10.6 -19.24 -11.01 -18.95 -11.36C-18.66 -11.71 -18.31 -11.98 -17.92 -12.17C-17.52 -12.36 -17.08 -12.45 -16.59 -12.45ZM-10.95 -8.13C-10.95 -8.58 -10.99 -9.04 -11.07 -9.51C-11.15 -9.98 -11.27 -10.43 -11.44 -10.87C-11.61 -11.31 -11.83 -11.72 -12.1 -12.11C-12.37 -12.5 -12.7 -12.84 -13.08 -13.13C-13.47 -13.42 -13.92 -13.65 -14.42 -13.81C-14.93 -13.98 -15.5 -14.06 -16.14 -14.06C-16.43 -14.06 -16.74 -14.03 -17.06 -13.96C-17.38 -13.89 -17.7 -13.8 -18 -13.69C-18.31 -13.58 -18.61 -13.45 -18.89 -13.3C-19.17 -13.15 -19.43 -13 -19.67 -12.83C-20.18 -12.48 -20.62 -12.07 -21.02 -11.6C-21.41 -11.13 -21.74 -10.62 -22 -10.08C-22.27 -9.53 -22.48 -8.95 -22.62 -8.32C-22.76 -7.7 -22.83 -7.06 -22.83 -6.4C-22.83 -5.37 -22.68 -4.43 -22.36 -3.59C-22.05 -2.75 -21.63 -2.03 -21.1 -1.44C-20.58 -0.84 -19.96 -0.38 -19.26 -0.05C-18.57 0.28 -17.83 0.44 -17.05 0.44C-16.52 0.44 -16.03 0.4 -15.59 0.32C-15.14 0.24 -14.69 0.09 -14.24 -0.15C-13.79 -0.39 -13.31 -0.73 -12.8 -1.16C-12.29 -1.59 -11.7 -2.15 -11.04 -2.86C-11.09 -2.93 -11.17 -3.06 -11.29 -3.22C-11.41 -3.39 -11.53 -3.51 -11.65 -3.57C-12.21 -3.14 -12.69 -2.8 -13.1 -2.55C-13.52 -2.29 -13.89 -2.1 -14.22 -1.97C-14.55 -1.84 -14.86 -1.75 -15.15 -1.71C-15.44 -1.67 -15.73 -1.66 -16.03 -1.66C-16.67 -1.66 -17.24 -1.8 -17.74 -2.09C-18.24 -2.38 -18.67 -2.76 -19.02 -3.25C-19.37 -3.74 -19.65 -4.31 -19.84 -4.97C-20.04 -5.63 -20.14 -6.33 -20.15 -7.08L-12.71 -7.08C-12.4 -7.2 -12.07 -7.36 -11.73 -7.55C-11.39 -7.74 -11.13 -7.93 -10.95 -8.13Z M19.15 -2.78L18.51 -3.5C17.97 -3.06 17.52 -2.72 17.15 -2.47C16.78 -2.22 16.45 -2.04 16.17 -1.92C15.88 -1.8 15.62 -1.73 15.38 -1.7C15.13 -1.67 14.87 -1.66 14.6 -1.66C14.03 -1.66 13.49 -1.78 12.97 -2.03C12.46 -2.28 12 -2.63 11.61 -3.09C11.22 -3.55 10.91 -4.11 10.67 -4.76C10.44 -5.42 10.32 -6.15 10.32 -6.96C10.32 -7.89 10.43 -8.69 10.64 -9.37C10.85 -10.05 11.12 -10.61 11.46 -11.06C11.81 -11.51 12.2 -11.84 12.65 -12.06C13.1 -12.27 13.57 -12.38 14.06 -12.38C14.53 -12.38 14.94 -12.31 15.29 -12.19C15.65 -12.06 15.96 -11.89 16.23 -11.69C16.5 -11.48 16.73 -11.25 16.91 -10.99C17.09 -10.72 17.23 -10.45 17.34 -10.18L18.03 -10.03C18.11 -10.17 18.22 -10.37 18.33 -10.64C18.45 -10.91 18.56 -11.19 18.66 -11.49C18.77 -11.79 18.85 -12.07 18.91 -12.33C18.96 -12.6 18.98 -12.79 18.96 -12.91C18.8 -13.08 18.58 -13.24 18.3 -13.38C18.02 -13.52 17.71 -13.65 17.37 -13.75C17.04 -13.85 16.69 -13.93 16.33 -13.98C15.97 -14.04 15.62 -14.06 15.3 -14.06C14.22 -14.06 13.21 -13.86 12.28 -13.47C11.34 -13.07 10.54 -12.54 9.86 -11.86C9.18 -11.18 8.65 -10.38 8.26 -9.46C7.88 -8.54 7.69 -7.56 7.69 -6.5C7.69 -5.42 7.85 -4.45 8.18 -3.59C8.5 -2.73 8.94 -2 9.47 -1.41C10.01 -0.81 10.62 -0.35 11.32 -0.04C12.01 0.28 12.73 0.44 13.47 0.44C13.93 0.44 14.36 0.41 14.77 0.35C15.19 0.29 15.61 0.15 16.04 -0.07C16.48 -0.29 16.95 -0.61 17.45 -1.03C17.95 -1.46 18.52 -2.04 19.15 -2.78Z M36.13 -6.59C36.13 -5.77 36.06 -5.03 35.92 -4.37C35.79 -3.7 35.57 -3.14 35.27 -2.68C34.97 -2.22 34.59 -1.87 34.13 -1.62C33.66 -1.37 33.1 -1.25 32.45 -1.25C32 -1.25 31.54 -1.4 31.07 -1.7C30.6 -2 30.18 -2.41 29.8 -2.93C29.42 -3.45 29.11 -4.05 28.87 -4.74C28.63 -5.43 28.51 -6.16 28.51 -6.93C28.51 -7.7 28.57 -8.42 28.69 -9.08C28.81 -9.75 29.02 -10.32 29.3 -10.81C29.58 -11.3 29.96 -11.68 30.43 -11.96C30.9 -12.24 31.48 -12.38 32.19 -12.38C32.68 -12.38 33.17 -12.22 33.64 -11.91C34.12 -11.6 34.54 -11.17 34.9 -10.64C35.27 -10.11 35.57 -9.49 35.79 -8.8C36.01 -8.1 36.13 -7.36 36.13 -6.59ZM38.87 -7.1C38.87 -8.1 38.72 -9.02 38.42 -9.87C38.12 -10.72 37.7 -11.46 37.15 -12.08C36.61 -12.7 35.95 -13.18 35.18 -13.54C34.42 -13.89 33.56 -14.06 32.61 -14.06C31.97 -14.06 31.35 -13.96 30.77 -13.77C30.18 -13.57 29.63 -13.31 29.12 -12.96C28.62 -12.62 28.16 -12.21 27.74 -11.74C27.33 -11.27 26.97 -10.75 26.68 -10.19C26.39 -9.63 26.16 -9.03 26 -8.41C25.84 -7.78 25.76 -7.15 25.76 -6.5C25.76 -5.51 25.9 -4.58 26.2 -3.74C26.5 -2.89 26.92 -2.15 27.47 -1.54C28.02 -0.92 28.68 -0.44 29.45 -0.09C30.22 0.26 31.08 0.44 32.04 0.44C32.96 0.44 33.83 0.23 34.65 -0.19C35.48 -0.61 36.21 -1.17 36.83 -1.87C37.46 -2.57 37.95 -3.37 38.32 -4.28C38.68 -5.19 38.87 -6.13 38.87 -7.1Z M60.76 -1.35L60.54 -2.15C60.04 -1.94 59.66 -1.81 59.41 -1.77C59.15 -1.72 58.96 -1.74 58.84 -1.82C58.7 -1.91 58.61 -2.13 58.57 -2.46C58.53 -2.79 58.5 -3.26 58.5 -3.87L58.5 -13.46L58.04 -14.06C57.43 -13.88 56.78 -13.7 56.09 -13.53C55.39 -13.36 54.65 -13.23 53.86 -13.14L53.86 -12.41C54.31 -12.39 54.67 -12.35 54.93 -12.29C55.19 -12.23 55.4 -12.13 55.54 -11.98C55.68 -11.84 55.77 -11.63 55.81 -11.37C55.85 -11.1 55.87 -10.75 55.87 -10.31L55.87 -3.84C55.45 -3.42 55.05 -3.06 54.69 -2.78C54.32 -2.49 53.98 -2.26 53.65 -2.08C53.32 -1.9 53.01 -1.78 52.71 -1.7C52.41 -1.62 52.13 -1.58 51.85 -1.58C51.53 -1.58 51.24 -1.63 50.98 -1.74C50.72 -1.84 50.51 -2.02 50.33 -2.27C50.15 -2.52 50.02 -2.87 49.93 -3.3C49.83 -3.73 49.79 -4.27 49.79 -4.94L49.79 -13.46L49.35 -14.06C49 -13.94 48.66 -13.82 48.35 -13.73C48.03 -13.63 47.71 -13.54 47.39 -13.47C47.08 -13.4 46.75 -13.33 46.4 -13.28C46.06 -13.23 45.7 -13.18 45.31 -13.14L45.31 -12.41C45.76 -12.36 46.1 -12.31 46.35 -12.26C46.6 -12.21 46.79 -12.12 46.9 -11.99C47.02 -11.86 47.09 -11.66 47.12 -11.4C47.14 -11.15 47.15 -10.78 47.15 -10.31L47.15 -4.09C47.15 -3.17 47.25 -2.42 47.45 -1.83C47.65 -1.25 47.92 -0.78 48.25 -0.45C48.58 -0.11 48.96 0.12 49.39 0.25C49.81 0.38 50.25 0.44 50.71 0.44C51.02 0.44 51.35 0.41 51.7 0.34C52.05 0.28 52.43 0.15 52.84 -0.04C53.26 -0.24 53.71 -0.52 54.21 -0.87C54.71 -1.23 55.26 -1.7 55.87 -2.29C55.91 -1.79 55.97 -1.36 56.05 -1.02C56.13 -0.67 56.23 -0.39 56.35 -0.18C56.47 0.04 56.6 0.2 56.75 0.29C56.89 0.39 57.05 0.44 57.23 0.44C57.35 0.44 57.53 0.39 57.78 0.29C58.03 0.2 58.31 0.06 58.64 -0.1C58.96 -0.27 59.3 -0.46 59.67 -0.67C60.04 -0.89 60.4 -1.11 60.76 -1.35Z M77.53 -13.49C77.17 -13.7 76.8 -13.84 76.43 -13.93C76.06 -14.02 75.7 -14.06 75.36 -14.06C74.94 -14.06 74.53 -13.97 74.14 -13.79C73.74 -13.61 73.36 -13.36 73.01 -13.05C72.65 -12.74 72.31 -12.37 72 -11.95C71.68 -11.53 71.39 -11.08 71.13 -10.59L70.94 -13.52L70.39 -14.06C70.1 -13.93 69.81 -13.81 69.51 -13.7C69.21 -13.6 68.9 -13.51 68.59 -13.42C68.28 -13.33 67.95 -13.25 67.61 -13.17C67.27 -13.09 66.9 -13.01 66.51 -12.93L66.51 -12.2C66.79 -12.18 67.01 -12.17 67.19 -12.15C67.37 -12.14 67.53 -12.11 67.65 -12.08C67.78 -12.06 67.88 -12.02 67.96 -11.98C68.04 -11.93 68.11 -11.88 68.18 -11.81C68.22 -11.76 68.26 -11.69 68.31 -11.62C68.35 -11.54 68.39 -11.43 68.42 -11.29C68.45 -11.16 68.47 -10.98 68.49 -10.76C68.51 -10.54 68.52 -10.27 68.52 -9.95L68.52 -1.67C68.52 -1.5 68.35 -1.35 68 -1.21C67.65 -1.07 67.16 -0.92 66.51 -0.78L66.51 0L73.67 0L73.67 -0.78C72.76 -0.91 72.11 -1.06 71.73 -1.22C71.35 -1.37 71.16 -1.52 71.16 -1.67L71.16 -7.63C71.41 -8.4 71.68 -9.05 71.97 -9.58C72.26 -10.11 72.55 -10.53 72.84 -10.86C73.13 -11.19 73.41 -11.43 73.68 -11.57C73.95 -11.72 74.19 -11.79 74.39 -11.79C74.8 -11.79 75.15 -11.6 75.43 -11.21C75.72 -10.82 75.91 -10.22 76.02 -9.43L76.79 -9.43C76.91 -9.7 77.03 -10.05 77.16 -10.48C77.29 -10.92 77.39 -11.35 77.48 -11.78C77.56 -12.21 77.61 -12.59 77.63 -12.91C77.65 -13.24 77.62 -13.43 77.53 -13.49Z M93.52 -4.15C93.52 -4.69 93.41 -5.17 93.2 -5.57C92.98 -5.98 92.7 -6.34 92.36 -6.66C92.02 -6.98 91.63 -7.26 91.2 -7.5C90.77 -7.74 90.35 -7.97 89.93 -8.19C89.49 -8.42 89.07 -8.64 88.68 -8.85C88.28 -9.05 87.93 -9.27 87.64 -9.48C87.34 -9.7 87.1 -9.94 86.93 -10.19C86.75 -10.44 86.66 -10.72 86.66 -11.03C86.66 -11.24 86.71 -11.44 86.79 -11.63C86.88 -11.83 87.01 -12 87.18 -12.15C87.35 -12.3 87.56 -12.43 87.81 -12.52C88.06 -12.62 88.34 -12.67 88.65 -12.67C89.18 -12.67 89.69 -12.5 90.19 -12.17C90.68 -11.83 91.12 -11.28 91.51 -10.53L92.23 -10.42C92.31 -10.51 92.4 -10.69 92.51 -10.95C92.63 -11.21 92.73 -11.48 92.82 -11.76C92.91 -12.03 92.98 -12.29 93.02 -12.52C93.06 -12.75 93.05 -12.89 92.99 -12.93C92.79 -13.11 92.52 -13.27 92.21 -13.4C91.89 -13.54 91.55 -13.66 91.18 -13.75C90.82 -13.85 90.44 -13.93 90.05 -13.98C89.67 -14.04 89.3 -14.06 88.96 -14.06C88.38 -14.06 87.8 -13.98 87.24 -13.81C86.68 -13.64 86.18 -13.39 85.75 -13.06C85.32 -12.73 84.98 -12.33 84.71 -11.85C84.45 -11.37 84.32 -10.83 84.32 -10.22C84.32 -9.76 84.41 -9.34 84.6 -8.97C84.78 -8.61 85.03 -8.27 85.34 -7.98C85.64 -7.68 85.99 -7.41 86.38 -7.17C86.77 -6.93 87.18 -6.71 87.59 -6.5C88.03 -6.27 88.47 -6.04 88.9 -5.82C89.33 -5.59 89.72 -5.35 90.05 -5.1C90.39 -4.84 90.66 -4.57 90.87 -4.26C91.07 -3.96 91.17 -3.61 91.17 -3.22C91.17 -2.57 90.97 -2.06 90.56 -1.69C90.15 -1.33 89.59 -1.14 88.89 -1.14C88.41 -1.14 87.96 -1.22 87.54 -1.38C87.12 -1.53 86.75 -1.75 86.43 -2.03C86.11 -2.31 85.84 -2.63 85.64 -3.01C85.43 -3.39 85.31 -3.8 85.26 -4.25L84.45 -4.41C84.37 -4.15 84.31 -3.8 84.26 -3.38C84.21 -2.96 84.18 -2.56 84.18 -2.16C84.17 -1.77 84.18 -1.42 84.21 -1.12C84.23 -0.82 84.28 -0.66 84.35 -0.63C84.67 -0.45 85.01 -0.3 85.36 -0.16C85.71 -0.02 86.05 0.09 86.39 0.18C86.73 0.26 87.05 0.33 87.37 0.37C87.68 0.42 87.97 0.44 88.23 0.44C88.44 0.44 88.73 0.42 89.07 0.39C89.42 0.35 89.79 0.28 90.19 0.18C90.58 0.07 90.98 -0.09 91.37 -0.29C91.77 -0.5 92.12 -0.77 92.44 -1.11C92.76 -1.46 93.02 -1.87 93.22 -2.37C93.42 -2.86 93.52 -3.45 93.52 -4.15Z M106.89 -12.45C107.48 -12.45 107.97 -12.32 108.34 -12.07C108.71 -11.82 109 -11.51 109.21 -11.15C109.42 -10.79 109.56 -10.41 109.64 -10.02C109.72 -9.63 109.76 -9.3 109.76 -9.02C109.76 -8.82 109.72 -8.68 109.65 -8.61C109.57 -8.53 109.43 -8.5 109.2 -8.5L103.4 -8.5C103.48 -9.08 103.61 -9.62 103.8 -10.11C103.99 -10.6 104.24 -11.01 104.53 -11.36C104.82 -11.71 105.17 -11.98 105.56 -12.17C105.96 -12.36 106.4 -12.45 106.89 -12.45ZM112.53 -8.13C112.53 -8.58 112.49 -9.04 112.41 -9.51C112.33 -9.98 112.21 -10.43 112.04 -10.87C111.86 -11.31 111.64 -11.72 111.38 -12.11C111.11 -12.5 110.78 -12.84 110.39 -13.13C110.01 -13.42 109.56 -13.65 109.05 -13.81C108.55 -13.98 107.98 -14.06 107.34 -14.06C107.05 -14.06 106.74 -14.03 106.42 -13.96C106.1 -13.89 105.78 -13.8 105.47 -13.69C105.17 -13.58 104.87 -13.45 104.59 -13.3C104.3 -13.15 104.04 -13 103.81 -12.83C103.3 -12.48 102.85 -12.07 102.46 -11.6C102.07 -11.13 101.74 -10.62 101.47 -10.08C101.21 -9.53 101 -8.95 100.86 -8.32C100.72 -7.7 100.65 -7.06 100.65 -6.4C100.65 -5.37 100.8 -4.43 101.12 -3.59C101.43 -2.75 101.85 -2.03 102.37 -1.44C102.9 -0.84 103.52 -0.38 104.21 -0.05C104.91 0.28 105.65 0.44 106.43 0.44C106.96 0.44 107.45 0.4 107.89 0.32C108.33 0.24 108.78 0.09 109.24 -0.15C109.69 -0.39 110.17 -0.73 110.68 -1.16C111.19 -1.59 111.77 -2.15 112.44 -2.86C112.39 -2.93 112.31 -3.06 112.19 -3.22C112.07 -3.39 111.95 -3.51 111.82 -3.57C111.27 -3.14 110.78 -2.8 110.37 -2.55C109.96 -2.29 109.59 -2.1 109.26 -1.97C108.93 -1.84 108.62 -1.75 108.33 -1.71C108.04 -1.67 107.75 -1.66 107.44 -1.66C106.81 -1.66 106.24 -1.8 105.74 -2.09C105.23 -2.38 104.81 -2.76 104.45 -3.25C104.1 -3.74 103.83 -4.31 103.63 -4.97C103.44 -5.63 103.34 -6.33 103.33 -7.08L110.77 -7.08C111.08 -7.2 111.41 -7.36 111.75 -7.55C112.09 -7.74 112.35 -7.93 112.53 -8.13Z"></path></g></g></svg>