<svg id="SvgjsSvg1013" width="100%" height="100%" xmlns="http://www.w3.org/2000/svg" version="1.1" xlink="http://www.w3.org/1999/xlink" xmlns:svgjs="http://svgjs.com/svgjs" preserveAspectRatio="xMidYMid meet" viewBox="0 0.000020253208276699297 144.7254180908203 120" overflow="visible"><defs id="SvgjsDefs1014"><linearGradient id="SvgjsLinearGradientdAC0tdB2yl" gradientUnits="userSpaceOnUse" x1="-247.95000839233387" y1="439.85005569457996" x2="-162.1499824523921" y2="354.05002975463816"><stop id="SvgjsStop1017" stop-color="#04724D" offset="0.05"></stop><stop id="SvgjsStop1018" stop-color="#04724D" offset="0.95"></stop></linearGradient></defs><g id="SvgjsG1015" transform="scale(0.6430525082873494)" opacity="1"><g id="SvgjsG1019" class="qy8MXwHty" transform="translate(396.34627930971, -486.93769562063466) scale(1.3841320928835108)" light-content="false" non-strokable="false" fill="#04724D"><path d="M-164.4 409.4v3.7c0 5.3-4.2 9.6-9.4 9.8h-62c-1.8 0-3.4.8-4.5 2h63.2c.6 0 1.1.5 1.1 1.1s-.5 1.1-1.1 1.1h-64.4c-.1.5-.2 1-.2 1.6v.7h64.6c.6 0 1.1.5 1.1 1.1 0 .6-.5 1.1-1.1 1.1h-64.6v.7c0 .6.1 1.1.2 1.6h64.4c.6 0 1.1.5 1.1 1.1 0 .6-.5 1.1-1.1 1.1h-63.2c1.1 1.2 2.7 2 4.5 2h61.8c1.1 0 2 .9 2 2s-.9 2-2 2h-61.8c-5.4 0-9.9-4.4-9.9-9.9v-3.7c0-5.3 4.2-9.6 9.4-9.8h62c1.8 0 3.4-.8 4.5-2H-233c-.6 0-1.1-.5-1.1-1.1s.5-1.1 1.1-1.1h64.4c.1-.5.2-1 .2-1.6v-.7H-233c-.6 0-1.1-.5-1.1-1.1 0-.6.5-1.1 1.1-1.1h64.6v-.7c0-.6-.1-1.1-.2-1.6H-233c-.6 0-1.1-.5-1.1-1.1 0-.6.5-1.1 1.1-1.1h63.2c-1.1-1.2-2.7-2-4.5-2H-236c-1.1 0-2-.9-2-2s.9-2 2-2h25.4c-.4-.2-.7-.4-1-.6-2.3-1.7-3.9-3.9-5.3-6.3-1.5-2.7-2.6-5.5-3-8.5-.5-3.2-.3-6.4 1.3-9.4 1.5-2.9 4.1-4.6 7.2-5.5 2.5-.7 5-.8 7.6-.3.8.2 1.5.7 2.3.9 0-.3.1-.6.1-.9-.1-.6-.2-1.1-.4-1.7-.9-2-2.2-3.3-4.1-4.4-1.3-.7-2.5-1.4-3.9-1.9h-.2v.1c.1.1.2.1.3.2 1.5.9 2.9 1.8 4.3 2.9.9.8 1.6 1.8 2.2 3-.4.2-.7.3-1 .4-1.5.5-3 .3-4.4-.4-1.9-.9-3.3-2.4-4.4-4.2-1.7-3.1-2.1-6.3-1.2-9.7.1-.4.2-.8.4-1.1.1-.1.2-.3.3-.3.1 0 .3.2.4.3.9 1.6 2.2 2.8 3.9 3.5.8.3 1.8.4 2.7.6 1.1.2 2.2.4 3.2.9 1.5.8 2.6 1.9 3.2 3.5.4 1.4.2 2.7-.5 3.9-.3.5-.3.7 0 1.2 0 0 0 .1.1.1.4-1 1-2 1.7-3 .7-.9 1.6-1.7 2.5-2.5.5-.5 1.2-.6 1.9-.4.8.2 1 1 .5 1.6-.2.2-.4.4-.7.5-2.9 2-5 4.6-6.3 7.9.7-.1 1.5-.7 2.2-.9 2.6-.5 5.1-.4 7.6.3 3.1.9 5.6 2.5 7.2 5.5 1.6 3 1.8 6.1 1.3 9.4-.5 3-1.5 5.9-3 8.5-1.4 2.4-3 4.7-5.3 6.3-.3.2-.6.4-1 .6h17.7c5.4-.1 9.8 4.3 9.8 9.8z"></path></g><g id="SvgjsG1020" class="text" transform="translate(113.0999984741211, 186.56719740301057) scale(1)" light-content="false" fill="#04724D"><path d="M-91.33 -16.26L-100.24 -16.26L-96.05 -29.38ZM-101.5 -12.45L-89.99 -12.45L-87.11 -4.42C-86.9 -3.78 -87.06 -3.31 -87.6 -3C-88.13 -2.7 -89.16 -2.51 -90.66 -2.43L-90.66 0L-75.37 0L-75.37 -2.43C-75.99 -2.51 -76.51 -2.61 -76.92 -2.72C-77.33 -2.84 -77.67 -2.98 -77.93 -3.13C-78.19 -3.29 -78.4 -3.48 -78.54 -3.69C-78.69 -3.91 -78.81 -4.15 -78.91 -4.42L-91.22 -38.58C-91.8 -38.43 -92.42 -38.24 -93.08 -38.03C-93.73 -37.81 -94.39 -37.56 -95.05 -37.27C-95.72 -36.97 -96.37 -36.65 -97 -36.28C-97.64 -35.92 -98.22 -35.52 -98.75 -35.07L-108.76 -4.42C-108.96 -3.84 -109.4 -3.42 -110.08 -3.16C-110.77 -2.91 -111.77 -2.67 -113.1 -2.43L-113.1 0L-100.09 0L-100.09 -2.43C-101.69 -2.61 -102.82 -2.83 -103.48 -3.11C-104.13 -3.38 -104.36 -3.82 -104.17 -4.42Z M-39.6 -11.04C-39.6 -12.49 -39.87 -13.77 -40.41 -14.88C-40.94 -16 -41.65 -16.99 -42.53 -17.86C-43.41 -18.73 -44.41 -19.5 -45.52 -20.19C-46.63 -20.87 -47.77 -21.5 -48.95 -22.09L-52.37 -23.79C-53.49 -24.36 -54.48 -24.94 -55.36 -25.55C-56.24 -26.15 -56.95 -26.82 -57.49 -27.54C-58.02 -28.26 -58.29 -29.08 -58.29 -30C-58.29 -30.55 -58.19 -31.08 -58 -31.6C-57.8 -32.11 -57.49 -32.57 -57.06 -32.97C-56.63 -33.37 -56.08 -33.69 -55.42 -33.93C-54.76 -34.16 -53.96 -34.28 -53.02 -34.28C-52.47 -34.28 -51.88 -34.19 -51.25 -34.03C-50.61 -33.86 -49.99 -33.57 -49.37 -33.16C-48.76 -32.75 -48.17 -32.21 -47.63 -31.54C-47.08 -30.86 -46.61 -30.03 -46.22 -29.03L-44 -28.86C-43.84 -28.99 -43.65 -29.23 -43.44 -29.58C-43.22 -29.92 -43 -30.31 -42.78 -30.75C-42.55 -31.19 -42.34 -31.65 -42.13 -32.12C-41.93 -32.6 -41.76 -33.05 -41.62 -33.46C-41.49 -33.87 -41.39 -34.22 -41.34 -34.53C-41.29 -34.83 -41.32 -35.02 -41.42 -35.1C-41.77 -35.49 -42.29 -35.85 -42.98 -36.18C-43.68 -36.51 -44.48 -36.8 -45.39 -37.03C-46.29 -37.27 -47.28 -37.45 -48.33 -37.59C-49.39 -37.72 -50.47 -37.79 -51.58 -37.79C-53.2 -37.79 -54.68 -37.64 -56.01 -37.32C-57.33 -37.01 -58.52 -36.6 -59.55 -36.08C-60.59 -35.56 -61.49 -34.97 -62.25 -34.29C-63.01 -33.62 -63.64 -32.92 -64.14 -32.2C-64.63 -31.47 -65.01 -30.75 -65.25 -30.03C-65.49 -29.31 -65.62 -28.64 -65.62 -28.04C-65.62 -26.61 -65.35 -25.38 -64.83 -24.35C-64.3 -23.31 -63.6 -22.4 -62.73 -21.61C-61.86 -20.82 -60.87 -20.12 -59.76 -19.51C-58.64 -18.91 -57.51 -18.33 -56.34 -17.78C-55.18 -17.24 -54.04 -16.69 -52.93 -16.14C-51.82 -15.6 -50.83 -14.99 -49.96 -14.31C-49.09 -13.64 -48.39 -12.87 -47.86 -12C-47.33 -11.13 -47.07 -10.1 -47.07 -8.91C-47.07 -7.97 -47.25 -7.16 -47.6 -6.49C-47.95 -5.82 -48.43 -5.26 -49.03 -4.82C-49.64 -4.38 -50.34 -4.05 -51.13 -3.84C-51.92 -3.62 -52.75 -3.52 -53.63 -3.52C-54.63 -3.52 -55.59 -3.73 -56.5 -4.15C-57.42 -4.57 -58.28 -5.14 -59.07 -5.87C-59.86 -6.61 -60.57 -7.47 -61.21 -8.47C-61.84 -9.46 -62.38 -10.54 -62.83 -11.69L-65.21 -11.84C-65.34 -11.29 -65.46 -10.67 -65.56 -9.99C-65.66 -9.31 -65.73 -8.61 -65.79 -7.9C-65.85 -7.18 -65.88 -6.48 -65.88 -5.8C-65.88 -5.12 -65.87 -4.5 -65.85 -3.96C-65.83 -3.41 -65.79 -2.95 -65.73 -2.59C-65.67 -2.23 -65.6 -2.03 -65.5 -1.99C-64.82 -1.54 -64 -1.14 -63.05 -0.79C-62.11 -0.44 -61.13 -0.14 -60.14 0.1C-59.14 0.35 -58.17 0.54 -57.21 0.67C-56.25 0.81 -55.41 0.88 -54.69 0.88C-52.97 0.88 -51.41 0.7 -50 0.35C-48.59 0 -47.33 -0.47 -46.21 -1.05C-45.08 -1.64 -44.11 -2.33 -43.28 -3.12C-42.45 -3.91 -41.76 -4.75 -41.23 -5.64C-40.69 -6.53 -40.28 -7.43 -40.01 -8.35C-39.74 -9.27 -39.6 -10.17 -39.6 -11.04Z M0.62 -6.18C0.56 -6.24 0.46 -6.37 0.31 -6.58C0.16 -6.78 0.01 -7.01 -0.16 -7.25C-0.32 -7.5 -0.49 -7.72 -0.66 -7.94C-0.82 -8.15 -0.95 -8.3 -1.05 -8.38C-2.05 -7.56 -3.03 -6.89 -4 -6.37C-4.96 -5.85 -5.87 -5.45 -6.72 -5.16C-7.57 -4.86 -8.36 -4.66 -9.08 -4.56C-9.8 -4.45 -10.43 -4.39 -10.95 -4.39C-12.2 -4.39 -13.45 -4.66 -14.7 -5.19C-15.95 -5.71 -17.08 -6.53 -18.07 -7.65C-19.07 -8.76 -19.88 -10.19 -20.5 -11.94C-21.13 -13.69 -21.44 -15.79 -21.44 -18.25C-21.44 -21.3 -21.18 -23.81 -20.65 -25.8C-20.12 -27.78 -19.44 -29.36 -18.6 -30.53C-17.76 -31.7 -16.82 -32.52 -15.79 -32.99C-14.75 -33.46 -13.74 -33.69 -12.74 -33.69C-11.32 -33.71 -9.97 -33.3 -8.71 -32.45C-7.45 -31.6 -6.33 -30.19 -5.36 -28.21L-3.16 -27.74C-3 -27.9 -2.81 -28.17 -2.58 -28.56C-2.34 -28.95 -2.09 -29.4 -1.83 -29.91C-1.56 -30.42 -1.31 -30.95 -1.05 -31.51C-0.8 -32.07 -0.57 -32.58 -0.38 -33.06C-0.18 -33.54 -0.04 -33.95 0.05 -34.28C0.13 -34.61 0.14 -34.8 0.06 -34.86C-0.45 -35.27 -1.11 -35.65 -1.92 -36.01C-2.73 -36.36 -3.62 -36.67 -4.6 -36.93C-5.57 -37.19 -6.6 -37.4 -7.67 -37.56C-8.75 -37.71 -9.81 -37.79 -10.87 -37.79C-13.56 -37.81 -16.06 -37.33 -18.37 -36.36C-20.67 -35.38 -22.67 -33.99 -24.36 -32.18C-26.05 -30.38 -27.38 -28.2 -28.34 -25.66C-29.31 -23.13 -29.79 -20.29 -29.79 -17.17C-29.79 -14.34 -29.35 -11.8 -28.46 -9.57C-27.57 -7.33 -26.39 -5.44 -24.91 -3.9C-23.44 -2.35 -21.75 -1.17 -19.85 -0.35C-17.94 0.47 -15.97 0.88 -13.94 0.88C-11.64 0.88 -9.26 0.33 -6.81 -0.76C-4.36 -1.86 -1.88 -3.66 0.62 -6.18Z M10.43 0L26.54 0L26.54 -2.43C25.13 -2.71 24.12 -3.01 23.51 -3.35C22.89 -3.7 22.58 -3.98 22.58 -4.22L22.58 -32.67C22.58 -32.94 22.91 -33.24 23.57 -33.57C24.22 -33.91 25.21 -34.21 26.54 -34.48L26.54 -36.91L10.43 -36.91L10.43 -34.48C11.83 -34.21 12.84 -33.9 13.46 -33.54C14.07 -33.19 14.38 -32.9 14.38 -32.67L14.38 -4.22C14.38 -3.95 14.05 -3.65 13.4 -3.33C12.75 -3 11.75 -2.71 10.43 -2.43Z M65.76 -9.49L63.33 -10.31C62.92 -9.16 62.52 -8.17 62.12 -7.35C61.72 -6.53 61.27 -5.86 60.78 -5.33C60.29 -4.8 59.73 -4.42 59.1 -4.17C58.46 -3.93 57.7 -3.81 56.8 -3.81L54.19 -3.81C52.9 -3.81 51.87 -3.85 51.08 -3.94C50.3 -4.03 49.7 -4.16 49.27 -4.32C48.84 -4.49 48.56 -4.68 48.42 -4.91C48.28 -5.13 48.21 -5.39 48.21 -5.68L48.21 -18.19L52.34 -18.19C53.17 -18.19 53.87 -18.16 54.47 -18.11C55.06 -18.05 55.58 -17.95 56.02 -17.81C56.46 -17.68 56.85 -17.51 57.19 -17.31C57.54 -17.12 57.85 -16.87 58.15 -16.58C58.36 -16.74 58.59 -16.97 58.83 -17.29C59.08 -17.6 59.32 -17.94 59.57 -18.33C59.81 -18.71 60.04 -19.08 60.27 -19.45C60.49 -19.82 60.68 -20.15 60.84 -20.42L59.79 -21.53L48.21 -21.53L48.21 -33.11L57.76 -33.11C58.49 -33.11 59.04 -32.58 59.43 -31.54C59.83 -30.49 60.07 -29.06 60.17 -27.25L62.66 -27.25C62.77 -27.62 62.9 -28.18 63.02 -28.95C63.15 -29.71 63.27 -30.52 63.39 -31.38C63.51 -32.24 63.6 -33.08 63.68 -33.9C63.76 -34.72 63.82 -35.38 63.86 -35.89L62.6 -36.91L36.06 -36.91L36.06 -34.48C37.46 -34.21 38.47 -33.9 39.09 -33.54C39.7 -33.19 40.01 -32.9 40.01 -32.67L40.01 -4.22C40.01 -3.95 39.68 -3.65 39.03 -3.33C38.37 -3 37.38 -2.71 36.06 -2.43L36.06 0L64.56 0C64.64 -0.29 64.73 -0.79 64.84 -1.49C64.95 -2.2 65.06 -3 65.18 -3.91C65.29 -4.82 65.4 -5.77 65.5 -6.75C65.6 -7.74 65.68 -8.65 65.76 -9.49Z M74.17 0L86.76 0L86.76 -2.43C86 -2.53 85.37 -2.66 84.87 -2.81C84.38 -2.97 83.97 -3.13 83.66 -3.3C83.34 -3.46 83.13 -3.63 83 -3.79C82.87 -3.96 82.81 -4.1 82.81 -4.22L82.81 -26.22L99.83 -2.67C100.14 -2.24 100.54 -1.83 101.03 -1.44C101.52 -1.04 102.1 -0.69 102.77 -0.38C103.45 -0.07 104.22 0.2 105.09 0.42C105.96 0.65 106.93 0.8 108 0.88L108 -32.67C108 -32.94 108.31 -33.26 108.93 -33.63C109.54 -34 110.55 -34.29 111.96 -34.48L111.96 -36.91L99.36 -36.91L99.36 -34.48C100.14 -34.37 100.79 -34.23 101.29 -34.07C101.8 -33.92 102.21 -33.75 102.51 -33.59C102.81 -33.42 103.02 -33.26 103.14 -33.09C103.26 -32.92 103.32 -32.78 103.32 -32.67L103.32 -10.34L85.83 -34.63C85.45 -35.14 85.16 -35.54 84.93 -35.84C84.71 -36.15 84.5 -36.38 84.3 -36.53C84.11 -36.69 83.92 -36.79 83.73 -36.84C83.54 -36.89 83.31 -36.91 83.01 -36.91L74.17 -36.91L74.17 -34.48C74.83 -34.39 75.5 -34.14 76.17 -33.75C76.85 -33.36 77.5 -32.87 78.12 -32.29L78.12 -4.22C78.12 -3.95 77.82 -3.62 77.21 -3.25C76.61 -2.88 75.59 -2.61 74.17 -2.43Z">

</path></g></g></svg>